<?xml version="1.0" encoding="utf-8"?>
<!-- Generator: Adobe Illustrator 22.0.1, SVG Export Plug-In . SVG Version: 6.00 Build 0)  -->
<svg version="1.1" id="Layer_1" xmlns="http://www.w3.org/2000/svg" xmlns:xlink="http://www.w3.org/1999/xlink" x="0px" y="0px"
	 viewBox="0 0 132.8 34" style="enable-background:new 0 0 132.8 34;" xml:space="preserve">
<style type="text/css">
	.st0{fill:#777878;}
	.st1{fill:#FFFFFF;}
	.st2{fill:#FAB908;}
	.st3{fill:#0066D9;}
	.st4{fill:#4285F4;}
	.st5{fill:#EA4335;}
	.st6{fill:#34A853;}
	.st7{fill:none;}
	.st8{fill:#3C4043;}
	.st9{fill:#5F6368;}
</style>
<title>Artboard 1 copy 3</title>
<g>
	<g id="XMLID_24_">
		<path id="XMLID_43_" class="st0" d="M132.8,9.1c0-0.3,0-0.7,0-1c0-0.7-0.1-1.4-0.2-2.2c-0.1-0.7-0.3-1.4-0.7-2
			c-0.3-0.6-0.8-1.2-1.3-1.7s-1.1-0.9-1.7-1.3c-0.7-0.3-1.3-0.5-2.1-0.7c-0.7-0.1-1.4-0.2-2.1-0.2c-0.3,0-0.7,0-1,0
			c-0.4,0-0.8,0-1.2,0H10.3C9.9,0,9.5,0,9.1,0c-0.3,0-0.7,0-1,0C7.4,0,6.7,0.1,6,0.2S4.6,0.5,4,0.9C3.3,1.2,2.7,1.6,2.2,2.1
			s-1,1.1-1.3,1.8s-0.5,1.3-0.7,2C0.1,6.6,0.1,7.4,0.1,8.1c0,0.3,0,0.7,0,1c0,0.4,0,0.8,0,1.2v13.5c0,0.4,0,0.8,0,1.2
			c0,0.3,0,0.7,0,1c0,0.7,0.1,1.4,0.2,2.2c0.1,0.7,0.3,1.4,0.7,2c0.3,0.6,0.8,1.2,1.3,1.7s1.1,0.9,1.7,1.3c0.7,0.3,1.3,0.5,2,0.7
			c0.7,0,1.4,0.1,2.1,0.1c0.3,0,0.7,0,1,0c0.4,0,0.8,0,1.2,0h112.3c0.4,0,0.8,0,1.2,0c0.3,0,0.7,0,1,0c0.7,0,1.4-0.1,2.1-0.2
			c0.7-0.1,1.4-0.3,2.1-0.7c0.6-0.3,1.2-0.8,1.7-1.3s0.9-1.1,1.3-1.7c0.3-0.7,0.5-1.3,0.7-2c0.1-0.7,0.2-1.4,0.2-2.2
			c0-0.3,0-0.7,0-1c0-0.4,0-0.8,0-1.2V10.2C132.8,9.9,132.8,9.5,132.8,9.1z"/>
		<path id="XMLID_42_" class="st1" d="M132.2,23.8c0,0.4,0,0.8,0,1.2c0,0.3,0,0.7,0,1c0,0.6-0.1,1.4-0.2,2.1
			c-0.1,0.7-0.3,1.3-0.6,1.9s-0.7,1.1-1.2,1.6c-0.5,0.5-1,0.8-1.6,1.1c-0.6,0.3-1.2,0.5-1.9,0.6c-0.7,0.1-1.4,0.2-2,0.2
			c-0.3,0-0.7,0-1,0c-0.4,0-0.8,0-1.2,0H10.3c-0.4,0-0.8,0-1.2,0c-0.3,0-0.6,0-1,0c-0.6,0-1.3-0.1-2.1-0.2c-0.7-0.1-1.3-0.3-1.9-0.6
			S3,32,2.5,31.6c-0.5-0.5-0.8-1-1.1-1.6c-0.2-0.8-0.4-1.4-0.5-2c-0.1-0.7-0.2-1.5-0.2-2.1c0-0.2,0-0.5,0-0.7v-0.3v-1.2V10.2V9.1
			V8.8c0-0.2,0-0.5,0-0.7c0-0.6,0-1.3,0.2-2.1C1,5.4,1.2,4.8,1.5,4.2s0.7-1.1,1.1-1.6c0.5-0.5,1-0.8,1.6-1.1S5.4,1,6.1,0.9
			s1.5-0.2,2.1-0.2h1c0.4,0,0.8,0,1.2,0h112.3c0.4,0,0.8,0,1.2,0h0.1h0.9c0.6,0,1.3,0.1,2.1,0.2c0.7,0.1,1.3,0.3,1.9,0.6
			c0.6,0.3,1.1,0.7,1.6,1.1c0.5,0.5,0.8,1,1.1,1.6s0.5,1.2,0.6,1.9s0.2,1.4,0.2,2c0,0.3,0,0.7,0,1c0,0.4,0,0.8,0,1.2L132.2,23.8
			L132.2,23.8z"/>
	</g>
</g>
<g id="google_podcasts_badge">
	<g id="Podcast_icon_final" transform="translate(5.000000, 5.000000)">
		<g id="_logo_Podcasts_192px" transform="translate(1.000000, 1.000000)">
			<polygon id="Shape" class="st2" points="9.7,7 9.7,10.3 9.7,11.7 9.7,15 12.4,15 12.4,11.7 12.4,10.3 12.4,7 			"/>
			<circle id="Oval" class="st3" cx="1.4" cy="10.2" r="1.4"/>
			<circle id="Oval_1_" class="st3" cx="1.4" cy="11.8" r="1.4"/>
			<rect id="Rectangle-path" y="10.2" class="st3" width="2.8" height="1.5"/>
			<circle id="Oval_2_" class="st4" cx="20.7" cy="11.8" r="1.4"/>
			<circle id="Oval_3_" class="st4" cx="20.7" cy="10.2" r="1.4"/>
			<rect id="Rectangle-path_1_" x="19.3" y="10.2" class="st4" width="2.8" height="1.5"/>
			<circle id="Oval_4_" class="st5" cx="6.2" cy="14.8" r="1.4"/>
			<circle id="Oval_5_" class="st5" cx="6.2" cy="16.2" r="1.4"/>
			<rect id="Rectangle-path_2_" x="4.8" y="14.8" class="st5" width="2.8" height="1.5"/>
			<circle id="Oval_6_" class="st5" cx="6.2" cy="5.8" r="1.4"/>
			<circle id="Oval_7_" class="st5" cx="6.2" cy="10.6" r="1.4"/>
			<rect id="Rectangle-path_3_" x="4.8" y="5.8" class="st5" width="2.8" height="4.9"/>
			<circle id="Oval_8_" class="st6" cx="15.9" cy="7.2" r="1.4"/>
			<circle id="Oval_9_" class="st6" cx="15.9" cy="5.8" r="1.4"/>
			<rect id="Rectangle-path_4_" x="14.5" y="5.8" class="st6" width="2.8" height="1.5"/>
			<circle id="Oval_10_" class="st2" cx="11" cy="2.9" r="1.4"/>
			<circle id="Oval_11_" class="st2" cx="11" cy="1.4" r="1.4"/>
			<rect id="Rectangle-path_5_" x="9.7" y="1.4" class="st2" width="2.8" height="1.5"/>
			<circle id="Oval_12_" class="st2" cx="11" cy="20.6" r="1.4"/>
			<circle id="Oval_13_" class="st2" cx="11" cy="19.1" r="1.4"/>
			<rect id="Rectangle-path_6_" x="9.7" y="19.1" class="st2" width="2.8" height="1.5"/>
			<circle id="Oval_14_" class="st6" cx="15.9" cy="16.2" r="1.4"/>
			<circle id="Oval_15_" class="st6" cx="15.9" cy="11.4" r="1.4"/>
			<rect id="Rectangle-path_7_" x="14.5" y="11.4" class="st6" width="2.8" height="4.9"/>
			<circle id="Oval_16_" class="st2" cx="11" cy="7" r="1.4"/>
			<circle id="Oval_17_" class="st2" cx="11" cy="15" r="1.4"/>
		</g>
	</g>
	<g id="Group" transform="translate(35.000000, 16.000000)">
		<polygon id="Rectangle-path_8_" class="st7" points="0,0 91,0 91,14 0,14 		"/>
		<path id="Podcasts" class="st8" d="M45,10.5h-1.1V1.6h3c0.8,0,1.4,0.3,2,0.8s0.8,1.1,0.8,1.9s-0.3,1.4-0.8,1.9
			c-0.6,0.5-1.2,0.8-2,0.8H45V10.5z M45,5.8h1.9c0.5,0,0.9-0.2,1.2-0.5s0.4-0.7,0.4-1.1s-0.2-0.7-0.5-1s-0.7-0.5-1.2-0.5H45V5.8z
			 M50.6,5.1c0.6-0.6,1.3-0.9,2.3-0.9s1.7,0.3,2.3,0.9C55.7,5.7,56,6.5,56,7.5c0,0.9-0.3,1.7-0.9,2.3c-0.6,0.6-1.3,0.9-2.3,0.9
			s-1.7-0.3-2.3-0.9s-0.9-1.4-0.9-2.3C49.7,6.5,50,5.8,50.6,5.1z M51.4,9.1c0.4,0.4,0.9,0.6,1.4,0.6s1-0.2,1.4-0.6
			c0.4-0.4,0.6-0.9,0.6-1.6s-0.2-1.2-0.6-1.6c-0.4-0.4-0.9-0.6-1.4-0.6s-1,0.2-1.4,0.6s-0.6,0.9-0.6,1.6S51,8.6,51.4,9.1z
			 M59.4,10.7c-0.8,0-1.5-0.3-2-0.9c-0.6-0.6-0.9-1.4-0.9-2.3s0.3-1.7,0.9-2.3c0.6-0.6,1.3-0.9,2-0.9c0.5,0,0.9,0.1,1.3,0.3
			c0.4,0.2,0.6,0.4,0.8,0.7l0,0V4.5V1.6h1.1v8.9h-1.1V9.7l0,0c-0.2,0.3-0.5,0.5-0.8,0.7C60.3,10.6,59.9,10.7,59.4,10.7z M59.6,9.7
			c0.5,0,1-0.2,1.4-0.6c0.4-0.4,0.6-0.9,0.6-1.6S61.4,6.2,61,5.8c-0.4-0.4-0.8-0.6-1.4-0.6c-0.5,0-1,0.2-1.4,0.6s-0.6,0.9-0.6,1.6
			s0.2,1.2,0.6,1.6S59.1,9.7,59.6,9.7z M66.6,10.7c-0.9,0-1.7-0.3-2.3-0.9c-0.6-0.6-0.9-1.4-0.9-2.3s0.3-1.7,0.9-2.3
			c0.6-0.6,1.3-0.9,2.3-0.9c0.7,0,1.2,0.2,1.7,0.5c0.4,0.3,0.8,0.8,1,1.3l-1,0.4c-0.3-0.8-0.9-1.1-1.7-1.1c-0.5,0-1,0.2-1.3,0.6
			c-0.4,0.4-0.6,0.9-0.6,1.6s0.2,1.2,0.6,1.6c0.4,0.4,0.8,0.6,1.3,0.6c0.9,0,1.4-0.4,1.8-1.1l1,0.4c-0.2,0.5-0.5,0.9-1,1.3
			S67.3,10.7,66.6,10.7z M72.1,10.7c-0.6,0-1.2-0.2-1.6-0.6c-0.4-0.4-0.7-0.9-0.7-1.5c0-0.7,0.3-1.2,0.8-1.6s1.1-0.6,1.9-0.6
			c0.7,0,1.2,0.1,1.7,0.4V6.7c0-0.4-0.2-0.8-0.5-1.1c-0.3-0.3-0.7-0.4-1.1-0.4c-0.3,0-0.6,0.1-0.9,0.2S71.2,5.8,71.1,6l-1-0.4
			c0.1-0.4,0.4-0.7,0.8-1s1-0.5,1.6-0.5c0.8,0,1.4,0.2,1.9,0.7s0.8,1.1,0.8,1.9v3.7h-1.1V9.7l0,0C73.6,10.4,72.9,10.7,72.1,10.7z
			 M72.2,9.7c0.5,0,0.9-0.2,1.3-0.5c0.4-0.4,0.6-0.8,0.6-1.3c-0.3-0.3-0.8-0.4-1.5-0.4c-0.6,0-1,0.1-1.3,0.4C71.1,8.1,71,8.4,71,8.7
			s0.1,0.5,0.4,0.7S71.9,9.7,72.2,9.7z M78.6,10.7c-0.7,0-1.2-0.2-1.7-0.5c-0.4-0.3-0.8-0.7-1-1.2l1-0.4c0.3,0.8,0.9,1.1,1.7,1.1
			c0.4,0,0.6-0.1,0.9-0.2c0.2-0.2,0.3-0.4,0.3-0.6c0-0.4-0.3-0.7-0.8-0.8l-1.2-0.3c-0.4-0.1-0.8-0.3-1.1-0.6
			c-0.3-0.3-0.5-0.7-0.5-1.1c0-0.5,0.2-1,0.7-1.3s1-0.5,1.7-0.5c0.5,0,1,0.1,1.4,0.4c0.4,0.2,0.7,0.6,0.9,1.1l-1,0.4
			c-0.2-0.5-0.7-0.8-1.4-0.8c-0.3,0-0.6,0.1-0.9,0.2c-0.2,0.1-0.3,0.3-0.3,0.6c0,0.3,0.3,0.6,0.8,0.7L79.3,7c0.6,0.1,1,0.4,1.3,0.7
			S81,8.4,81,8.8c0,0.5-0.2,1-0.7,1.4C79.8,10.5,79.3,10.7,78.6,10.7z M84.4,10.6c-0.6,0-1.1-0.2-1.5-0.5c-0.3-0.3-0.5-0.8-0.5-1.4
			V5.4h-1.1v-1h1.1V2.5h1.1v1.9H85v1h-1.5v3.1c0,0.7,0.3,1,0.8,1c0.2,0,0.4,0,0.5-0.1l0.4,1C85,10.5,84.7,10.6,84.4,10.6z
			 M88.4,10.7c-0.7,0-1.2-0.2-1.7-0.5c-0.4-0.3-0.8-0.7-1-1.2l1-0.4c0.3,0.8,0.9,1.1,1.7,1.1c0.4,0,0.6-0.1,0.9-0.2
			c0.2-0.2,0.3-0.4,0.3-0.6c0-0.4-0.3-0.7-0.8-0.8l-1.2-0.3c-0.4-0.1-0.8-0.3-1.1-0.6C86.2,6.9,86,6.5,86,6.1c0-0.5,0.2-1,0.7-1.3
			s1-0.5,1.7-0.5c0.5,0,1,0.1,1.4,0.4c0.4,0.2,0.7,0.6,0.9,1.1l-1,0.4c-0.2-0.5-0.7-0.8-1.4-0.8c-0.3,0-0.6,0.1-0.9,0.2
			c-0.2,0.1-0.3,0.3-0.3,0.6c0,0.3,0.3,0.6,0.8,0.7L89.1,7c0.6,0.1,1,0.4,1.3,0.7s0.4,0.7,0.4,1.1c0,0.5-0.2,1-0.7,1.4
			C89.7,10.5,89.1,10.7,88.4,10.7z"/>
		<path id="Combined-Shape" class="st8" d="M0.3,5.6c0-2.8,2.4-5.1,5.2-5.1c1.6,0,2.7,0.6,3.5,1.4l-1,1c-0.6-0.6-1.4-1-2.5-1
			c-2.1,0-3.7,1.7-3.7,3.7s1.6,3.7,3.7,3.7c1.3,0,2.1-0.5,2.6-1c0.4-0.4,0.7-1,0.8-1.8H5.5V5.1h4.7c0,0.3,0.1,0.5,0.1,0.9
			c0,1.1-0.3,2.3-1.2,3.3c-0.9,0.9-2.1,1.4-3.6,1.4C2.7,10.7,0.3,8.4,0.3,5.6z M14,4.2c1.8,0,3.3,1.4,3.3,3.3s-1.5,3.3-3.3,3.3
			s-3.3-1.4-3.3-3.3C10.7,5.6,12.2,4.2,14,4.2z M14,9.4c1,0,1.9-0.8,1.9-2s-0.9-2-1.9-2s-1.9,0.8-1.9,2C12.2,8.6,13,9.4,14,9.4z
			 M21.2,4.2c1.8,0,3.3,1.4,3.3,3.3s-1.5,3.3-3.3,3.3s-3.3-1.4-3.3-3.3C17.9,5.6,19.4,4.2,21.2,4.2z M21.2,9.4c1,0,1.9-0.8,1.9-2
			s-0.9-2-1.9-2s-1.9,0.8-1.9,2C19.4,8.6,20.2,9.4,21.2,9.4z M30.1,4.3h1.4v5.9c0,2.4-1.4,3.4-3.1,3.4c-1.6,0-2.6-1.1-2.9-1.9
			l1.3-0.5c0.2,0.5,0.8,1.2,1.7,1.2c1.1,0,1.8-0.7,1.8-1.9V9.9l0,0c-0.3,0.4-0.9,0.7-1.7,0.7c-1.6,0-3.1-1.4-3.1-3.3S27,4,28.6,4
			c0.8,0,1.4,0.3,1.7,0.7l0,0V4.3H30.1z M28.4,9.4c1,0,1.8-0.8,1.8-2s-0.8-2-1.8-2s-1.8,0.8-1.8,2C26.6,8.5,27.4,9.4,28.4,9.4z
			 M32.4,10.5V0.9h1.4v9.7L32.4,10.5L32.4,10.5z M37.8,9.4c0.7,0,1.2-0.4,1.6-0.9l1.1,0.7c-0.4,0.5-1.2,1.5-2.7,1.5
			c-1.9,0-3.3-1.4-3.3-3.3c0-2,1.4-3.3,3.1-3.3c1.7,0,2.5,1.4,2.8,2.1l0.1,0.4l-4.4,1.8C36.6,9.1,37.1,9.4,37.8,9.4z M37.7,5.4
			c-0.7,0-1.8,0.7-1.7,1.9l2.9-1.2C38.8,5.7,38.3,5.4,37.7,5.4z"/>
	</g>
	<path id="Listen-on" class="st9" d="M36.6,12.3h3V13h-3.9V6.6h0.8v5.7H36.6z M41.6,13h-0.8V8.2h0.8V13z M40.7,7
		c0-0.1,0-0.2,0.1-0.3c0.1-0.1,0.2-0.1,0.4-0.1s0.3,0,0.4,0.1c0.1,0.1,0.1,0.2,0.1,0.3s0,0.2-0.1,0.3c-0.1,0.1-0.2,0.1-0.4,0.1
		s-0.3,0-0.4-0.1C40.8,7.2,40.7,7.1,40.7,7z M45.9,11.7c0-0.2-0.1-0.4-0.2-0.5s-0.5-0.2-0.9-0.3s-0.7-0.2-1-0.3
		c-0.2-0.1-0.4-0.3-0.5-0.4s-0.2-0.4-0.2-0.6c0-0.4,0.2-0.7,0.5-1s0.8-0.4,1.3-0.4s1,0.1,1.3,0.4c0.3,0.3,0.5,0.6,0.5,1.1h-0.8
		c0-0.2-0.1-0.4-0.3-0.6s-0.4-0.2-0.7-0.2S44.4,9,44.2,9.1s-0.3,0.3-0.3,0.5S44,9.9,44.1,10s0.4,0.2,0.8,0.3c0.4,0.1,0.7,0.2,1,0.3
		s0.4,0.3,0.6,0.5s0.2,0.4,0.2,0.6c0,0.4-0.2,0.8-0.5,1c-0.3,0.3-0.8,0.4-1.3,0.4c-0.4,0-0.7-0.1-1-0.2c-0.3-0.1-0.5-0.3-0.7-0.6
		S43,11.8,43,11.5h0.8c0,0.3,0.1,0.5,0.3,0.6s0.5,0.2,0.8,0.2s0.6-0.1,0.7-0.2S45.9,11.9,45.9,11.7z M49.1,7.1v1.2H50v0.6h-0.9v2.9
		c0,0.2,0,0.3,0.1,0.4c0.1,0.1,0.2,0.1,0.4,0.1c0.1,0,0.2,0,0.4-0.1V13c-0.2,0.1-0.4,0.1-0.6,0.1c-0.4,0-0.6-0.1-0.8-0.3
		s-0.3-0.5-0.3-0.9v-3h-0.9V8.2h0.9V7.1H49.1z M53.1,13.1c-0.6,0-1.2-0.2-1.6-0.6c-0.4-0.4-0.6-1-0.6-1.7v-0.1
		c0-0.5,0.1-0.9,0.3-1.3C51.4,9,51.7,8.7,52,8.5s0.7-0.3,1.1-0.3c0.6,0,1.1,0.2,1.4,0.6c0.3,0.4,0.5,1,0.5,1.7v0.3h-3.2
		c0,0.5,0.1,0.8,0.4,1.1c0.3,0.3,0.6,0.4,1,0.4c0.3,0,0.5-0.1,0.7-0.2c0.2-0.1,0.4-0.3,0.5-0.5l0.5,0.4
		C54.5,12.8,53.9,13.1,53.1,13.1z M53,8.8c-0.3,0-0.6,0.1-0.8,0.4c-0.2,0.2-0.4,0.6-0.4,1h2.4v-0.1c0-0.4-0.1-0.7-0.3-1
		C53.6,8.9,53.4,8.8,53,8.8z M56.9,8.2v0.6c0.4-0.5,0.8-0.7,1.4-0.7c1,0,1.5,0.6,1.5,1.7V13H59V9.9c0-0.3-0.1-0.6-0.2-0.8
		s-0.4-0.2-0.7-0.2S57.6,9,57.4,9.1S57.1,9.4,57,9.6V13h-0.8V8.2H56.9z M63.6,10.6c0-0.5,0.1-0.9,0.3-1.3s0.4-0.7,0.8-0.9
		c0.3-0.2,0.7-0.3,1.1-0.3c0.6,0,1.2,0.2,1.6,0.7c0.4,0.4,0.6,1,0.6,1.8v0.1c0,0.5-0.1,0.9-0.3,1.2c-0.2,0.4-0.4,0.7-0.8,0.9
		c-0.3,0.2-0.7,0.3-1.1,0.3c-0.6,0-1.2-0.2-1.6-0.7C63.8,12,63.6,11.4,63.6,10.6L63.6,10.6z M64.4,10.7c0,0.5,0.1,1,0.4,1.3
		c0.2,0.3,0.6,0.5,1,0.5s0.7-0.2,1-0.5c0.2-0.3,0.4-0.8,0.4-1.4c0-0.5-0.1-0.9-0.4-1.3c-0.2-0.3-0.6-0.5-1-0.5s-0.7,0.2-1,0.5
		S64.4,10.1,64.4,10.7z M69.9,8.2v0.6c0.4-0.5,0.8-0.7,1.4-0.7c1,0,1.5,0.6,1.5,1.7V13H72V9.9c0-0.3-0.1-0.6-0.2-0.8
		c-0.2-0.2-0.4-0.2-0.7-0.2c-0.3,0-0.5,0.1-0.7,0.2c-0.2,0.1-0.4,0.3-0.5,0.6V13h-0.8V8.2H69.9z"/>
</g>
</svg>
